<svg width="500" height="300" viewBox="0 0 50 30" fill="none" xmlns="http://www.w3.org/2000/svg">
<path d="M25 0.0976868C15.447 0.0976868 6.78378 5.32424 0.391224 13.8136C-0.130408 14.5091 -0.130408 15.4807 0.391224 16.1762C6.78378 24.6758 15.447 29.9023 25 29.9023C34.553 29.9023 43.2162 24.6758 49.6088 16.1865C50.1304 15.491 50.1304 14.5193 49.6088 13.8238C43.2162 5.32424 34.553 0.0976868 25 0.0976868ZM25.6853 25.494C19.3439 25.8929 14.1071 20.6664 14.506 14.3147C14.8333 9.07795 19.0779 4.83329 24.3147 4.50599C30.6561 4.1071 35.8929 9.33365 35.494 15.6853C35.1565 20.9118 30.9118 25.1565 25.6853 25.494ZM25.3682 20.6459C21.952 20.8607 19.1291 18.048 19.3541 14.6318C19.528 11.8088 21.8191 9.52798 24.642 9.34388C28.0582 9.12909 30.8811 11.9418 30.6561 15.358C30.472 18.1912 28.1809 20.472 25.3682 20.6459Z" fill="#AAAAAA"/>
</svg>
